<?xml version="1.0" encoding="UTF-8" standalone="no"?>
<svg width="471px" height="526px" viewBox="0 0 471 526" version="1.1" xmlns="http://www.w3.org/2000/svg" xmlns:xlink="http://www.w3.org/1999/xlink">
    <!-- Generator: Sketch 43.2 (39069) - http://www.bohemiancoding.com/sketch -->
    <title>Artboard 2</title>
    <desc>Created with Sketch.</desc>
    <defs>
        <ellipse id="path-1" cx="139" cy="330" rx="139" ry="54"></ellipse>
        <path d="M175,236.624971 C190.854786,234.218901 203,220.526207 203,203.994847 L203,118.005153 C203,99.7817648 188.229679,85 170.009564,85 L106.990436,85 C88.7665017,85 74,99.7769101 74,118.005153 L74,203.994847 C74,220.867353 86.6616666,234.789572 103,236.760937 L103,314.994847 C103,333.218235 117.77337,348 135.997245,348 L142.002755,348 C160.234218,348 175,333.22309 175,314.994847 L175,236.624971 Z M137.5,75 C116.789322,75 100,58.2106781 100,37.5 C100,16.7893219 116.789322,-2.84217094e-14 137.5,-2.84217094e-14 C158.210678,-2.84217094e-14 175,16.7893219 175,37.5 C175,58.2106781 158.210678,75 137.5,75 Z" id="path-2"></path>
    </defs>
    <g id="Page-2" stroke="none" stroke-width="1" fill="none" fill-rule="evenodd">
        <g id="Artboard-2">
            <g id="Group" transform="translate(94.000000, 44.000000)">
                <g id="Oval-2">
                    <ellipse stroke="#FFFFFF" stroke-width="41" cx="139" cy="330" rx="159.5" ry="74.5"></ellipse>
                    <ellipse stroke="#FF3333" stroke-width="31" cx="139" cy="330" rx="154.5" ry="69.5"></ellipse>
                </g>
                <ellipse id="Oval-2-Copy" fill-opacity="0.307404891" fill="#6E000B" cx="139" cy="330" rx="139" ry="54"></ellipse>
                <g id="Rectangle-12">
                    <use fill="#FF3333" fill-rule="evenodd" xlink:href="#path-2"></use>
                    <path stroke="#FFFFFF" stroke-width="10" d="M180,240.672636 C196.279878,236.253452 208,221.36766 208,203.994847 L208,118.005153 C208,97.0192771 190.99004,80 170.009564,80 L106.990436,80 C86.0058083,80 69,97.014755 69,118.005153 L69,203.994847 C69,221.749921 81.2384476,236.865582 98,240.92933 L98,314.994847 C98,335.980954 115.01324,353 135.997245,353 L142.002755,353 C162.993467,353 180,335.986689 180,314.994847 L180,240.672636 Z M137.5,80 C160.972102,80 180,60.9721019 180,37.5 C180,14.0278981 160.972102,-5 137.5,-5 C114.027898,-5 95,14.0278981 95,37.5 C95,60.9721019 114.027898,80 137.5,80 Z"></path>
                </g>
            </g>
        </g>
    </g>
</svg>